<svg width="400" height="401" viewBox="0 0 400 401" fill="none" xmlns="http://www.w3.org/2000/svg">
<circle cx="200" cy="200.333" r="198" fill="white" stroke="#08757A" stroke-width="4"/>
<path d="M97.316 272.709C97.604 272.709 97.856 272.817 98.072 273.033C98.288 273.225 98.396 273.465 98.396 273.753C98.396 274.065 98.288 274.329 98.072 274.545C97.856 274.737 97.604 274.833 97.316 274.833H84.464C84.152 274.833 83.888 274.725 83.672 274.509C83.48 274.293 83.384 274.041 83.384 273.753V250.713C83.384 250.425 83.492 250.173 83.708 249.957C83.924 249.741 84.2 249.633 84.536 249.633C84.824 249.633 85.076 249.741 85.292 249.957C85.532 250.173 85.652 250.425 85.652 250.713V273.321L84.968 272.709H97.316ZM104.812 273.717C104.788 274.029 104.656 274.293 104.416 274.509C104.2 274.725 103.948 274.833 103.66 274.833C103.324 274.833 103.048 274.725 102.832 274.509C102.64 274.293 102.544 274.029 102.544 273.717V250.749C102.544 250.437 102.652 250.173 102.868 249.957C103.084 249.741 103.36 249.633 103.696 249.633C103.984 249.633 104.236 249.741 104.452 249.957C104.692 250.173 104.812 250.437 104.812 250.749V273.717ZM129.976 249.633C130.288 249.633 130.528 249.729 130.696 249.921C130.888 250.113 130.984 250.353 130.984 250.641V273.681C130.984 274.041 130.864 274.329 130.624 274.545C130.408 274.737 130.156 274.833 129.868 274.833C129.724 274.833 129.568 274.809 129.4 274.761C129.232 274.689 129.1 274.593 129.004 274.473L112.948 252.837L113.56 252.513V273.861C113.56 274.125 113.464 274.353 113.272 274.545C113.08 274.737 112.84 274.833 112.552 274.833C112.24 274.833 111.988 274.737 111.796 274.545C111.628 274.353 111.544 274.125 111.544 273.861V250.713C111.544 250.353 111.652 250.089 111.868 249.921C112.084 249.729 112.324 249.633 112.588 249.633C112.732 249.633 112.888 249.669 113.056 249.741C113.224 249.789 113.356 249.885 113.452 250.029L129.328 271.413L128.968 272.061V250.641C128.968 250.353 129.064 250.113 129.256 249.921C129.472 249.729 129.712 249.633 129.976 249.633ZM147.996 249.633C149.772 249.633 151.32 249.969 152.64 250.641C153.984 251.313 155.088 252.249 155.952 253.449C156.816 254.625 157.452 255.969 157.86 257.481C158.292 258.993 158.508 260.577 158.508 262.233C158.508 264.537 158.124 266.649 157.356 268.569C156.612 270.465 155.46 271.989 153.9 273.141C152.364 274.269 150.396 274.833 147.996 274.833H138.816C138.528 274.833 138.276 274.725 138.06 274.509C137.844 274.293 137.736 274.041 137.736 273.753V250.713C137.736 250.425 137.844 250.173 138.06 249.957C138.276 249.741 138.528 249.633 138.816 249.633H147.996ZM147.636 272.709C149.676 272.709 151.32 272.241 152.568 271.305C153.816 270.369 154.728 269.109 155.304 267.525C155.904 265.917 156.204 264.153 156.204 262.233C156.204 260.841 156.036 259.521 155.7 258.273C155.388 257.001 154.884 255.885 154.188 254.925C153.516 253.941 152.628 253.173 151.524 252.621C150.444 252.045 149.148 251.757 147.636 251.757H139.752L140.004 251.433V273.069L139.788 272.709H147.636ZM171.859 252.405L163.111 274.149C163.015 274.389 162.883 274.569 162.715 274.689C162.547 274.809 162.355 274.869 162.139 274.869C161.803 274.869 161.551 274.785 161.383 274.617C161.215 274.425 161.119 274.197 161.095 273.933C161.071 273.813 161.083 273.669 161.131 273.501L170.635 250.245C170.755 249.981 170.899 249.801 171.067 249.705C171.259 249.585 171.475 249.525 171.715 249.525C171.955 249.525 172.159 249.597 172.327 249.741C172.519 249.861 172.663 250.029 172.759 250.245L182.227 273.393C182.275 273.537 182.299 273.681 182.299 273.825C182.299 274.161 182.191 274.425 181.975 274.617C181.759 274.785 181.507 274.869 181.219 274.869C180.979 274.869 180.763 274.809 180.571 274.689C180.403 274.545 180.271 274.365 180.175 274.149L171.211 252.261L171.859 252.405ZM165.199 267.561L166.099 265.437H177.259L177.691 267.561H165.199ZM207.891 275.193C206.043 275.193 204.327 274.869 202.743 274.221C201.159 273.573 199.779 272.673 198.603 271.521C197.451 270.345 196.551 268.965 195.903 267.381C195.255 265.797 194.931 264.081 194.931 262.233C194.931 260.385 195.255 258.669 195.903 257.085C196.551 255.501 197.451 254.133 198.603 252.981C199.779 251.805 201.159 250.893 202.743 250.245C204.327 249.597 206.043 249.273 207.891 249.273C209.163 249.273 210.387 249.429 211.563 249.741C212.763 250.029 213.831 250.473 214.767 251.073C214.935 251.193 215.055 251.337 215.127 251.505C215.223 251.649 215.271 251.805 215.271 251.973C215.271 252.309 215.163 252.585 214.947 252.801C214.731 252.993 214.503 253.089 214.263 253.089C214.143 253.089 214.023 253.077 213.903 253.053C213.807 253.005 213.711 252.957 213.615 252.909C212.799 252.453 211.911 252.093 210.951 251.829C209.991 251.565 208.971 251.433 207.891 251.433C205.827 251.433 203.991 251.901 202.383 252.837C200.775 253.773 199.515 255.057 198.603 256.689C197.691 258.321 197.235 260.169 197.235 262.233C197.235 264.297 197.691 266.145 198.603 267.777C199.515 269.409 200.775 270.693 202.383 271.629C203.991 272.565 205.827 273.033 207.891 273.033C208.971 273.033 210.051 272.877 211.131 272.565C212.235 272.253 213.183 271.833 213.975 271.305L213.795 272.061V263.781L214.335 264.285H208.107C207.795 264.285 207.531 264.177 207.315 263.961C207.099 263.745 206.991 263.493 206.991 263.205C206.991 262.869 207.099 262.605 207.315 262.413C207.531 262.221 207.795 262.125 208.107 262.125H214.983C215.295 262.125 215.547 262.233 215.739 262.449C215.955 262.641 216.063 262.893 216.063 263.205V271.881C216.063 272.073 216.015 272.253 215.919 272.421C215.823 272.589 215.691 272.733 215.523 272.853C214.467 273.573 213.279 274.149 211.959 274.581C210.663 274.989 209.307 275.193 207.891 275.193ZM244.082 262.233C244.082 264.129 243.782 265.869 243.182 267.453C242.606 269.013 241.778 270.381 240.698 271.557C239.618 272.709 238.334 273.609 236.846 274.257C235.382 274.881 233.774 275.193 232.022 275.193C230.27 275.193 228.65 274.881 227.162 274.257C225.698 273.609 224.426 272.709 223.346 271.557C222.266 270.381 221.426 269.013 220.826 267.453C220.25 265.869 219.962 264.129 219.962 262.233C219.962 260.337 220.25 258.609 220.826 257.049C221.426 255.465 222.266 254.097 223.346 252.945C224.426 251.769 225.698 250.869 227.162 250.245C228.65 249.597 230.27 249.273 232.022 249.273C233.774 249.273 235.382 249.597 236.846 250.245C238.334 250.869 239.618 251.769 240.698 252.945C241.778 254.097 242.606 255.465 243.182 257.049C243.782 258.609 244.082 260.337 244.082 262.233ZM241.778 262.233C241.778 260.097 241.358 258.225 240.518 256.617C239.702 254.985 238.562 253.713 237.098 252.801C235.634 251.889 233.942 251.433 232.022 251.433C230.126 251.433 228.434 251.889 226.946 252.801C225.482 253.713 224.33 254.985 223.49 256.617C222.674 258.225 222.266 260.097 222.266 262.233C222.266 264.369 222.674 266.253 223.49 267.885C224.33 269.493 225.482 270.753 226.946 271.665C228.434 272.577 230.126 273.033 232.022 273.033C233.942 273.033 235.634 272.577 237.098 271.665C238.562 270.753 239.702 269.493 240.518 267.885C241.358 266.253 241.778 264.369 241.778 262.233ZM250.261 249.633C250.429 249.633 250.597 249.669 250.765 249.741C250.957 249.813 251.113 249.933 251.233 250.101L261.169 265.005L260.197 264.969L270.169 250.101C270.433 249.741 270.757 249.585 271.141 249.633C271.429 249.633 271.669 249.741 271.861 249.957C272.077 250.149 272.185 250.401 272.185 250.713V273.753C272.185 274.041 272.077 274.293 271.861 274.509C271.645 274.725 271.381 274.833 271.069 274.833C270.733 274.833 270.457 274.725 270.241 274.509C270.025 274.293 269.917 274.041 269.917 273.753V252.909L270.565 252.981L261.457 266.769C261.385 266.913 261.277 267.033 261.133 267.129C260.989 267.201 260.821 267.225 260.629 267.201C260.461 267.225 260.293 267.201 260.125 267.129C259.981 267.033 259.861 266.913 259.765 266.769L250.621 252.837L251.305 252.369V273.753C251.305 274.041 251.197 274.293 250.981 274.509C250.789 274.725 250.537 274.833 250.225 274.833C249.913 274.833 249.661 274.725 249.469 274.509C249.277 274.293 249.181 274.041 249.181 273.753V250.713C249.181 250.425 249.277 250.173 249.469 249.957C249.685 249.741 249.949 249.633 250.261 249.633ZM280.038 249.633H293.25C293.538 249.633 293.79 249.741 294.006 249.957C294.222 250.149 294.33 250.401 294.33 250.713C294.33 251.025 294.222 251.277 294.006 251.469C293.79 251.661 293.538 251.757 293.25 251.757H280.866L281.226 251.145V261.261L280.83 260.793H291.63C291.918 260.793 292.17 260.901 292.386 261.117C292.602 261.333 292.71 261.585 292.71 261.873C292.71 262.185 292.602 262.437 292.386 262.629C292.17 262.821 291.918 262.917 291.63 262.917H280.902L281.226 262.557V272.925L281.046 272.709H293.25C293.538 272.709 293.79 272.817 294.006 273.033C294.222 273.249 294.33 273.501 294.33 273.789C294.33 274.101 294.222 274.353 294.006 274.545C293.79 274.737 293.538 274.833 293.25 274.833H280.038C279.75 274.833 279.498 274.725 279.282 274.509C279.066 274.293 278.958 274.041 278.958 273.753V250.713C278.958 250.425 279.066 250.173 279.282 249.957C279.498 249.741 279.75 249.633 280.038 249.633ZM316.375 249.633C316.735 249.633 317.023 249.741 317.239 249.957C317.455 250.173 317.563 250.425 317.563 250.713C317.563 250.953 317.491 251.169 317.347 251.361L300.967 273.069L300.895 272.781H316.339C316.627 272.781 316.879 272.877 317.095 273.069C317.311 273.261 317.419 273.501 317.419 273.789C317.419 274.077 317.311 274.329 317.095 274.545C316.879 274.737 316.627 274.833 316.339 274.833H299.095C298.759 274.833 298.483 274.713 298.267 274.473C298.075 274.233 297.979 273.981 297.979 273.717C297.979 273.477 298.051 273.261 298.195 273.069L314.503 251.541L314.719 251.685H299.995C299.683 251.685 299.419 251.589 299.203 251.397C299.011 251.181 298.915 250.929 298.915 250.641C298.915 250.353 299.011 250.113 299.203 249.921C299.419 249.729 299.683 249.633 299.995 249.633H316.375Z" fill="#424242"/>
<path d="M66.6 144.853H96.48V146.413C93.6 146.413 91.48 146.813 90.12 147.613C88.84 148.333 88.2 150.093 88.2 152.893V224.413C88.2 225.853 88.44 227.013 88.92 227.893C89.48 228.693 90.36 229.333 91.56 229.813C92.84 230.213 94.52 230.493 96.6 230.653C98.68 230.733 101.24 230.773 104.28 230.773C109.4 230.773 113.8 229.933 117.48 228.253C121.16 226.493 124.32 224.133 126.96 221.173C129.6 218.213 131.84 214.733 133.68 210.733C135.52 206.733 137.12 202.453 138.48 197.893H140.04L131.52 232.333H66.6V230.773C67.96 230.773 69.12 230.773 70.08 230.773C71.04 230.693 71.84 230.493 72.48 230.173C73.2 229.853 73.76 229.333 74.16 228.613C74.56 227.893 74.8 226.893 74.88 225.613V152.893C74.88 150.093 74.2 148.333 72.84 147.613C71.56 146.813 69.48 146.413 66.6 146.413V144.853ZM188.519 233.773C183.399 233.773 178.479 232.893 173.759 231.133C169.039 229.373 164.839 226.733 161.159 223.213C157.479 219.613 154.519 215.133 152.279 209.773C150.119 204.333 149.039 197.933 149.039 190.573C149.039 183.053 150.159 176.373 152.399 170.533C154.639 164.693 157.679 159.773 161.519 155.773C165.439 151.773 169.999 148.733 175.199 146.653C180.479 144.573 186.079 143.533 191.999 143.533C195.759 143.533 198.879 143.853 201.359 144.493C203.919 145.133 206.119 145.813 207.959 146.533C209.799 147.253 211.439 147.933 212.879 148.573C214.319 149.213 215.799 149.533 217.319 149.533C218.919 149.533 220.079 149.093 220.799 148.213C221.599 147.333 221.999 146.213 221.999 144.853H223.559L225.359 171.733H223.919C222.079 163.893 218.479 157.733 213.119 153.253C207.839 148.693 201.159 146.413 193.079 146.413C183.399 146.413 176.039 149.693 170.999 156.253C165.959 162.813 163.439 172.133 163.439 184.213C163.439 187.333 163.679 190.613 164.159 194.053C164.719 197.413 165.519 200.733 166.559 204.013C167.679 207.293 169.079 210.413 170.759 213.373C172.519 216.253 174.559 218.813 176.879 221.053C179.279 223.293 181.999 225.093 185.039 226.453C188.159 227.733 191.639 228.373 195.479 228.373C198.999 228.373 201.919 227.973 204.239 227.173C206.559 226.293 208.399 225.053 209.759 223.453C211.199 221.773 212.199 219.733 212.759 217.333C213.399 214.853 213.719 212.013 213.719 208.813V193.213C213.719 190.893 213.039 189.413 211.679 188.773C210.399 188.053 207.879 187.693 204.119 187.693V186.133H235.319V187.693C232.999 187.693 230.999 188.053 229.319 188.773C227.719 189.413 226.919 190.893 226.919 193.213L227.039 232.333H225.359C225.359 227.853 225.039 224.733 224.399 222.973C223.839 221.213 222.519 220.333 220.439 220.333C219.079 220.333 217.759 220.733 216.479 221.533C215.279 222.333 213.559 223.733 211.319 225.733C209.399 227.413 207.559 228.773 205.799 229.813C204.039 230.853 202.239 231.693 200.399 232.333C198.559 232.893 196.679 233.253 194.759 233.413C192.839 233.653 190.759 233.773 188.519 233.773ZM244.313 188.413C244.313 182.173 245.433 176.333 247.673 170.893C249.913 165.453 252.953 160.693 256.793 156.613C260.713 152.533 265.273 149.333 270.473 147.013C275.753 144.693 281.353 143.533 287.273 143.533C293.193 143.533 298.793 144.693 304.073 147.013C309.353 149.333 313.953 152.533 317.873 156.613C321.793 160.693 324.873 165.453 327.113 170.893C329.433 176.333 330.593 182.173 330.593 188.413C330.593 194.653 329.433 200.533 327.113 206.053C324.873 211.573 321.793 216.413 317.873 220.573C313.953 224.653 309.353 227.893 304.073 230.293C298.793 232.613 293.193 233.773 287.273 233.773C281.353 233.773 275.753 232.613 270.473 230.293C265.273 227.893 260.713 224.653 256.793 220.573C252.953 216.413 249.913 211.573 247.673 206.053C245.433 200.533 244.313 194.653 244.313 188.413ZM286.073 145.213C281.513 145.213 277.513 146.373 274.073 148.693C270.713 150.933 267.873 153.973 265.553 157.813C263.313 161.653 261.593 166.133 260.393 171.253C259.273 176.293 258.713 181.573 258.713 187.093C258.713 192.853 259.273 198.453 260.393 203.893C261.593 209.333 263.393 214.133 265.793 218.293C268.193 222.453 271.273 225.813 275.033 228.373C278.793 230.853 283.273 232.093 288.473 232.093C293.273 232.093 297.393 230.973 300.833 228.733C304.353 226.493 307.233 223.453 309.473 219.613C311.793 215.693 313.473 211.173 314.513 206.053C315.633 200.933 316.193 195.493 316.193 189.733C316.193 184.133 315.633 178.693 314.513 173.413C313.393 168.053 311.593 163.293 309.113 159.133C306.713 154.973 303.593 151.613 299.753 149.053C295.993 146.493 291.433 145.213 286.073 145.213Z" fill="#08757A"/>
</svg>
